<svg width="291" height="87" viewBox="0 0 291 87" fill="none" xmlns="http://www.w3.org/2000/svg">
<path d="M279.234 84.3229H10.9219C5.48438 84.3229 1.07812 79.9166 1.07812 74.4791V10.9166C1.07812 5.47913 5.48438 1.07288 10.9219 1.07288H279.234C284.672 1.07288 289.078 5.47913 289.078 10.9166V74.4791C289.078 79.9166 284.672 84.3229 279.234 84.3229Z" fill="black"/>
<mask id="mask0_393_469" style="mask-type:luminance" maskUnits="userSpaceOnUse" x="0" y="0" width="291" height="87">
<path d="M0 0H290.146V86.6667H0V0Z" fill="white"/>
</mask>
<g mask="url(#mask0_393_469)">
<path d="M10.9167 2.151C6.08333 2.151 2.15104 6.08329 2.15104 10.9166V74.4791C2.15104 79.3125 6.08333 83.2448 10.9167 83.2448H279.234C284.068 83.2448 288 79.3125 288 74.4791V10.9166C288 6.08329 284.068 2.151 279.234 2.151H10.9167ZM279.234 85.401H10.9167C4.89583 85.401 0 80.5 0 74.4791V10.9166C0 4.89579 4.89583 -0.00524902 10.9167 -0.00524902H279.234C285.255 -0.00524902 290.151 4.89579 290.151 10.9166V74.4791C290.151 80.5 285.255 85.401 279.234 85.401Z" fill="#A7A9AB"/>
</g>
<path d="M100.615 22.3489L99.5107 18.8906C99.2399 18.0364 99.0107 17.0833 98.8024 16.2708H98.7607C98.5576 17.0833 98.3441 18.0573 98.0993 18.8906L97.016 22.3489H100.615ZM96.5993 24.2812L95.391 28.2604H92.7451L97.2451 14.2291H100.511L105.068 28.2604H102.323L101.052 24.2812" fill="white"/>
<path d="M108.896 18.125L110.542 23.2604C110.833 24.1563 111.036 24.9688 111.224 25.8021H111.286C111.474 24.9688 111.703 24.1771 111.974 23.2604L113.599 18.125H116.281L112.411 28.2604H109.896L106.125 18.125" fill="white"/>
<path d="M124.005 23.3021C122.192 23.2813 120.463 23.6563 120.463 25.198C120.463 26.198 121.109 26.6563 121.922 26.6563C122.958 26.6563 123.692 25.9896 123.937 25.2605C124.005 25.073 124.005 24.8855 124.005 24.698V23.3021ZM126.5 25.823C126.5 26.7396 126.541 27.6355 126.666 28.2552H124.354L124.172 27.1355H124.104C123.505 27.9219 122.442 28.4844 121.109 28.4844C119.067 28.4844 117.927 27.0105 117.927 25.4688C117.927 22.9271 120.192 21.6198 123.937 21.6407V21.474C123.937 20.8073 123.672 19.7032 121.88 19.7032C120.88 19.7032 119.838 20.0157 119.151 20.4532L118.651 18.7865C119.401 18.3282 120.713 17.8959 122.317 17.8959C125.562 17.8959 126.5 19.9532 126.5 22.1823" fill="white"/>
<path d="M130.119 18.125H132.677V28.2605H130.119V18.125ZM131.385 16.6667C130.536 16.6667 129.974 16.0417 129.974 15.2917C129.974 14.5 130.552 13.8959 131.411 13.8959C132.281 13.8959 132.823 14.5 132.843 15.2917C132.843 16.0417 132.281 16.6667 131.411 16.6667" fill="white"/>
<path d="M136.359 28.2605H138.922V13.4584H136.359V28.2605Z" fill="white"/>
<path d="M147.995 23.3021C146.183 23.2813 144.453 23.6563 144.453 25.198C144.453 26.198 145.099 26.6563 145.912 26.6563C146.953 26.6563 147.683 25.9896 147.933 25.2605C147.995 25.073 147.995 24.8855 147.995 24.698V23.3021ZM150.49 25.823C150.49 26.7396 150.532 27.6355 150.657 28.2552H148.349L148.162 27.1355H148.099C147.495 27.9219 146.433 28.4844 145.099 28.4844C143.063 28.4844 141.917 27.0105 141.917 25.4688C141.917 22.9271 144.188 21.6198 147.933 21.6407V21.474C147.933 20.8073 147.662 19.7032 145.87 19.7032C144.87 19.7032 143.828 20.0157 143.146 20.4532L142.646 18.7865C143.396 18.3282 144.703 17.8959 146.308 17.8959C149.552 17.8959 150.49 19.9532 150.49 22.1823" fill="white"/>
<path d="M156.672 24.073C156.672 24.2813 156.693 24.4896 156.735 24.6771C157.006 25.7188 157.901 26.4688 159 26.4688C160.604 26.4688 161.584 25.198 161.584 23.1407C161.584 21.349 160.729 19.8907 159.021 19.8907C157.979 19.8907 157.026 20.6407 156.756 21.7657C156.714 21.9532 156.672 22.1823 156.672 22.4323V24.073ZM154.11 13.4584H156.672V19.5157H156.714C157.339 18.5365 158.438 17.8959 159.959 17.8959C162.438 17.8959 164.203 19.9532 164.183 23.0365C164.183 26.6771 161.875 28.4896 159.584 28.4896C158.271 28.4896 157.11 27.9896 156.381 26.7396H156.339L156.214 28.2605H154.026C154.068 27.573 154.11 26.448 154.11 25.4271" fill="white"/>
<path d="M167.198 28.2605H169.756V13.4584H167.198V28.2605Z" fill="white"/>
<path d="M179.724 22.1198C179.745 21.1823 179.328 19.6407 177.625 19.6407C176.042 19.6407 175.375 21.0782 175.271 22.1198H179.724ZM175.271 23.9063C175.333 25.7396 176.771 26.5313 178.396 26.5313C179.578 26.5313 180.411 26.3438 181.203 26.073L181.578 27.8177C180.703 28.198 179.495 28.4636 178.042 28.4636C174.75 28.4636 172.812 26.448 172.812 23.349C172.812 20.5365 174.521 17.8959 177.771 17.8959C181.057 17.8959 182.141 20.599 182.141 22.8282C182.141 23.3073 182.099 23.6823 182.057 23.9063" fill="white"/>
<path d="M194.854 26.6355C196.307 26.6355 197.328 25.2188 197.328 23.1615C197.328 21.5782 196.619 19.7448 194.875 19.7448C193.062 19.7448 192.333 21.5157 192.333 23.2032C192.333 25.1563 193.312 26.6355 194.828 26.6355H194.854ZM194.771 28.4896C191.916 28.4896 189.692 26.5313 189.692 23.2657C189.692 19.9323 191.875 17.8959 194.937 17.8959C197.953 17.8959 199.974 20.0157 199.974 23.099C199.974 26.823 197.349 28.4896 194.791 28.4896" fill="white"/>
<path d="M202.984 21.1407C202.984 19.974 202.948 18.9948 202.906 18.1198H205.13L205.255 19.6407H205.318C205.776 18.849 206.88 17.8959 208.568 17.8959C210.333 17.8959 212.167 19.0365 212.167 22.2448V28.2552H209.604V22.5365C209.604 21.0782 209.063 19.974 207.672 19.974C206.651 19.974 205.943 20.7032 205.672 21.474C205.589 21.6823 205.547 21.9948 205.547 22.2865V28.2552H202.984" fill="white"/>
<path d="M223.963 15.5209V18.1198H226.396V20.0365H223.963V24.4896C223.963 25.7396 224.297 26.3646 225.271 26.3646C225.729 26.3646 225.979 26.3438 226.271 26.2605L226.312 28.1927C225.937 28.3438 225.25 28.4636 224.458 28.4636C223.505 28.4636 222.734 28.1511 222.255 27.6355C221.692 27.0521 221.442 26.1146 221.442 24.7813V20.0365H220.005V18.1198H221.442V16.2292" fill="white"/>
<path d="M229.245 13.4584H231.808V19.4948H231.849C232.162 19.0157 232.599 18.6198 233.12 18.349C233.641 18.0625 234.24 17.8959 234.886 17.8959C236.615 17.8959 238.422 19.0365 238.422 22.2865V28.2605H235.865V22.5573C235.865 21.099 235.323 19.974 233.907 19.974C232.912 19.974 232.203 20.6407 231.912 21.4115C231.828 21.6407 231.808 21.9115 231.808 22.1823V28.2605H229.245" fill="white"/>
<path d="M248.328 22.1198C248.349 21.1823 247.933 19.6407 246.224 19.6407C244.641 19.6407 243.979 21.0782 243.875 22.1198H248.328ZM243.875 23.9063C243.938 25.7396 245.37 26.5313 246.995 26.5313C248.183 26.5313 249.016 26.3438 249.802 26.073L250.183 27.8177C249.308 28.198 248.099 28.4636 246.641 28.4636C243.354 28.4636 241.417 26.448 241.417 23.349C241.417 20.5365 243.125 17.8959 246.37 17.8959C249.657 17.8959 250.74 20.599 250.74 22.8282C250.74 23.3073 250.698 23.6823 250.657 23.9063" fill="white"/>
<path d="M64.7554 41.8646C64.6877 34.9219 70.4377 31.5417 70.7033 31.3854C67.4481 26.6354 62.4012 25.9896 60.6252 25.9375C56.3908 25.4948 52.2814 28.4792 50.1252 28.4792C47.922 28.4792 44.5939 25.9844 41.0158 26.0573C36.4012 26.1302 32.0887 28.8021 29.7241 32.9427C24.8491 41.3958 28.4845 53.8125 33.1616 60.6458C35.5054 63.9896 38.2345 67.7292 41.8127 67.5937C45.3127 67.4479 46.6199 65.3646 50.8439 65.3646C55.0314 65.3646 56.2606 67.5937 59.9116 67.5104C63.6668 67.4479 66.0314 64.151 68.2866 60.7708C70.995 56.9375 72.0783 53.1615 72.12 52.9687C72.0314 52.9375 64.8283 50.1875 64.7554 41.8646Z" fill="white"/>
<path d="M57.8598 21.4479C59.74 19.0937 61.0369 15.8854 60.6723 12.6354C57.9483 12.7604 54.5421 14.5208 52.5785 16.8229C50.8441 18.8541 49.2869 22.1822 49.6931 25.3073C52.7556 25.5364 55.8962 23.7656 57.8598 21.4479Z" fill="white"/>
<path d="M106.995 55.1198L104.578 47.6563C104.323 46.8959 103.844 45.099 103.135 42.2761H103.052C102.771 43.4896 102.313 45.2865 101.693 47.6563L99.3177 55.1198H106.995ZM115.349 67.0417H110.469L107.797 58.6459H98.5156L95.9688 67.0417H91.2188L100.427 38.4584H106.104" fill="white"/>
<path d="M134.349 56.6511C134.349 54.6407 133.896 52.9896 132.99 51.6875C132 50.3334 130.672 49.6511 129.006 49.6511C127.875 49.6511 126.844 50.0313 125.933 50.7761C125.016 51.5313 124.412 52.5105 124.125 53.7292C123.985 54.2917 123.917 54.7552 123.917 55.1198V58.5573C123.917 60.0573 124.375 61.323 125.292 62.3542C126.214 63.3907 127.407 63.9011 128.875 63.9011C130.604 63.9011 131.948 63.2396 132.901 61.9063C133.87 60.5782 134.349 58.8282 134.349 56.6511ZM139.016 56.4792C139.016 59.9844 138.068 62.7605 136.172 64.7917C134.474 66.6042 132.365 67.5052 129.854 67.5052C127.136 67.5052 125.188 66.5261 124 64.5782H123.917V75.4375H119.334V53.2136C119.334 51.0105 119.282 48.75 119.167 46.4271H123.193L123.448 49.698H123.537C125.063 47.2344 127.381 46.0052 130.49 46.0052C132.917 46.0052 134.953 46.9688 136.573 48.8907C138.198 50.8177 139.016 53.3438 139.016 56.4792Z" fill="white"/>
<path d="M158.052 56.6511C158.052 54.6407 157.599 52.9896 156.693 51.6875C155.703 50.3334 154.375 49.6511 152.708 49.6511C151.578 49.6511 150.552 50.0313 149.635 50.7761C148.714 51.5313 148.12 52.5105 147.839 53.7292C147.693 54.2917 147.625 54.7552 147.625 55.1198V58.5573C147.625 60.0573 148.078 61.323 148.995 62.3542C149.917 63.3907 151.109 63.9011 152.583 63.9011C154.307 63.9011 155.651 63.2396 156.609 61.9063C157.568 60.5782 158.052 58.8282 158.052 56.6511ZM162.714 56.4792C162.714 59.9844 161.771 62.7605 159.875 64.7917C158.177 66.6042 156.073 67.5052 153.557 67.5052C150.844 67.5052 148.896 66.5261 147.703 64.5782H147.625V75.4375H143.042V53.2136C143.042 51.0105 142.984 48.75 142.875 46.4271H146.901L147.156 49.698H147.245C148.766 47.2344 151.083 46.0052 154.193 46.0052C156.625 46.0052 158.651 46.9688 160.281 48.8907C161.906 50.8177 162.714 53.3438 162.714 56.4792Z" fill="white"/>
<path d="M189.224 59.026C189.224 61.4531 188.38 63.4323 186.682 64.9635C184.818 66.6302 182.229 67.4635 178.901 67.4635C175.823 67.4635 173.354 66.8698 171.484 65.6823L172.547 61.8698C174.563 63.0833 176.766 63.6875 179.172 63.6875C180.896 63.6875 182.24 63.3021 183.203 62.526C184.161 61.7448 184.641 60.7031 184.641 59.401C184.641 58.2448 184.25 57.2604 183.458 56.4688C182.667 55.6771 181.349 54.9427 179.51 54.2604C174.505 52.3906 172.005 49.6563 172.005 46.0625C172.005 43.7135 172.88 41.7865 174.635 40.2865C176.385 38.7865 178.719 38.0312 181.63 38.0312C184.234 38.0312 186.396 38.4896 188.12 39.3906L186.974 43.125C185.365 42.25 183.542 41.8073 181.505 41.8073C179.891 41.8073 178.635 42.2031 177.734 42.9948C176.974 43.7031 176.589 44.5677 176.589 45.5833C176.589 46.7135 177.021 47.6458 177.901 48.3802C178.661 49.0573 180.047 49.7917 182.057 50.5885C184.516 51.5781 186.323 52.7344 187.484 54.0625C188.641 55.3906 189.224 57.0469 189.224 59.026Z" fill="white"/>
<path d="M204.36 49.8646H199.313V59.8698C199.313 62.4167 200.203 63.6875 201.99 63.6875C202.802 63.6875 203.485 63.6198 204.021 63.4792L204.146 66.9531C203.25 67.2969 202.058 67.4635 200.589 67.4635C198.782 67.4635 197.365 66.9115 196.344 65.8125C195.328 64.7083 194.818 62.8542 194.818 60.2552V49.8646H191.808V46.4271H194.818V42.6563L199.313 41.2969V46.4271H204.36" fill="white"/>
<path d="M222.385 56.7136C222.385 54.8125 221.974 53.1875 221.151 51.823C220.198 50.1771 218.823 49.3542 217.042 49.3542C215.203 49.3542 213.802 50.1771 212.844 51.823C212.021 53.1875 211.62 54.8438 211.62 56.8021C211.62 58.7032 212.021 60.3282 212.844 61.6875C213.833 63.3334 215.219 64.1563 217.005 64.1563C218.75 64.1563 220.125 63.323 221.115 61.6459C221.964 60.2605 222.385 58.6146 222.385 56.7136ZM227.135 56.5677C227.135 59.7344 226.234 62.3334 224.422 64.3698C222.526 66.4636 220.01 67.5052 216.875 67.5052C213.844 67.5052 211.437 66.5 209.641 64.4948C207.849 62.4896 206.953 59.9584 206.953 56.9063C206.953 53.7084 207.875 51.0938 209.729 49.0625C211.578 47.0209 214.073 46.0052 217.208 46.0052C220.234 46.0052 222.672 47.0105 224.505 49.0157C226.26 50.974 227.135 53.4844 227.135 56.5677Z" fill="white"/>
<path d="M242.021 50.4584C241.568 50.375 241.089 50.3334 240.578 50.3334C238.969 50.3334 237.719 50.9427 236.844 52.1563C236.084 53.2344 235.703 54.5886 235.703 56.224V67.0417H231.125L231.162 52.9219C231.162 50.5417 231.104 48.3802 230.995 46.4271H234.985L235.151 50.375H235.271C235.756 49.0209 236.521 47.9271 237.563 47.1094C238.584 46.375 239.688 46.0052 240.875 46.0052C241.297 46.0052 241.683 46.0365 242.021 46.0886" fill="white"/>
<path d="M258.131 54.5729C258.162 53.2187 257.865 52.0416 257.245 51.052C256.453 49.7812 255.229 49.1406 253.594 49.1406C252.099 49.1406 250.881 49.7656 249.948 51.0104C249.188 52 248.729 53.1875 248.599 54.5729H258.131ZM262.495 55.7604C262.495 56.5833 262.443 57.2708 262.334 57.8385H248.599C248.646 59.875 249.313 61.4323 250.589 62.5052C251.745 63.4687 253.245 63.9427 255.084 63.9427C257.115 63.9427 258.969 63.6198 260.641 62.9687L261.36 66.151C259.407 66.9948 257.104 67.427 254.443 67.427C251.25 67.427 248.74 66.4843 246.917 64.5989C245.099 62.7239 244.183 60.1979 244.183 57.0312C244.183 53.9218 245.026 51.3333 246.729 49.2708C248.506 47.0625 250.912 45.9635 253.933 45.9635C256.901 45.9635 259.157 47.0625 260.683 49.2708C261.896 51.0208 262.495 53.1875 262.495 55.7604Z" fill="white"/>
</svg>
